<svg xmlns="http://www.w3.org/2000/svg" width="579.055" height="456.444" viewBox="0 0 579.055 456.444"><defs><style>.a{fill:#bfded3;}</style></defs><g transform="translate(-219.48 21.935)"><path class="a" d="M-10175.842,1956.179h19.272l-57.578,136.527h-19.372Z" transform="translate(10955.104 -1978.113)"/><path class="a" d="M-10175.842,1956.179h19.272l-57.578,136.527h-19.372Z" transform="translate(10955.104 -1818.155)"/><path class="a" d="M-10175.842,1956.179h19.272l-57.578,136.527h-19.372Z" transform="translate(10955.104 -1658.196)"/><path class="a" d="M-10433.267,1956.179h13.037l-56.612,136.281h-13.1Z" transform="translate(11109.662 -1978.113)"/><path class="a" d="M-10433.267,1956.179h13.037l-56.612,136.281h-13.1Z" transform="translate(11109.662 -1818.465)"/><path class="a" d="M-10433.267,1956.179h13.037l-56.612,136.281h-13.1Z" transform="translate(11109.662 -1658.689)"/><path class="a" d="M-10691.24,1956.179h8.578l-56.947,136.438h-8.775Z" transform="translate(11265.854 -1978.113)"/><path class="a" d="M-10691.24,1956.179h8.578l-56.947,136.438h-8.775Z" transform="translate(11265.854 -1818.635)"/><path class="a" d="M-10691.24,1956.179h8.578l-56.947,136.438h-8.775Z" transform="translate(11265.854 -1658.196)"/><path class="a" d="M-10950.363,1956.179h3.279l-56.785,136.868h-3.977Z" transform="translate(11422.771 -1978.113)"/><path class="a" d="M-10950.363,1956.179h3.279l-56.785,136.868h-3.977Z" transform="translate(11422.771 -1819.103)"/><path class="a" d="M-10950.363,1956.179h3.279l-56.785,136.868h-3.977Z" transform="translate(11422.771 -1659.277)"/><path class="a" d="M-11208.125,1956.179h1.746l-56.783,136.377h-1.994Z" transform="translate(11578.593 -1978.113)"/><path class="a" d="M-11208.125,1956.179h1.746l-56.783,136.377h-1.994Z" transform="translate(11484.637 -1978.113)"/><path class="a" d="M-11208.125,1956.179h1.746l-56.783,136.377h-1.994Z" transform="translate(11578.593 -1818.857)"/><path class="a" d="M-11208.125,1956.179h1.746l-56.783,136.377h-1.994Z" transform="translate(11578.593 -1659.277)"/><path class="a" d="M-11208.125,1956.179h1.746l-56.783,136.377h-1.994Z" transform="translate(11485.729 -1659.277)"/><path class="a" d="M-11208.125,1956.179h1.746l-56.783,136.377h-1.994Z" transform="translate(11485.729 -1818.513)"/></g></svg>